<?xml version="1.0" standalone="no"?>
<!DOCTYPE svg PUBLIC "-//W3C//DTD SVG 20010904//EN"
 "http://www.w3.org/TR/2001/REC-SVG-20010904/DTD/svg10.dtd">
<svg version="1.0" xmlns="http://www.w3.org/2000/svg"
 width="225.000000pt" height="225.000000pt" viewBox="0 0 225.000000 225.000000"
 preserveAspectRatio="xMidYMid meet">
<metadata>
Created by potrace 1.11, written by Peter Selinger 2001-2013
</metadata>
<g transform="translate(0.000000,225.000000) scale(0.100000,-0.100000)"
fill="#000000" stroke="none">
<path d="M1010 2220 c-262 -26 -494 -142 -681 -337 -202 -211 -301 -460 -302
-753 -1 -299 98 -549 302 -763 216 -227 481 -339 796 -339 198 0 358 39 515
124 304 165 513 453 571 788 16 93 16 294 0 375 -71 361 -290 646 -616 805
-94 46 -194 75 -325 95 -101 16 -142 17 -260 5z m710 -732 c0 -117 -4 -150
-19 -183 -39 -86 -125 -140 -252 -159 -63 -9 -82 -17 -113 -44 -20 -17 -60
-44 -88 -58 l-50 -26 5 -45 c7 -63 38 -92 108 -102 65 -8 79 -16 79 -42 0 -14
7 -19 30 -19 l30 0 0 -95 0 -95 -330 0 -330 0 0 95 0 95 30 0 c23 0 33 6 39
24 11 26 30 36 72 36 37 0 85 24 99 49 5 11 10 39 10 63 0 41 -2 45 -34 56
-19 7 -56 32 -83 56 -40 36 -57 44 -103 49 -96 11 -159 35 -207 80 -73 67 -83
98 -83 265 l0 142 595 0 595 0 0 -142z"/>
<path d="M602 1445 l3 -115 35 -34 c42 -42 74 -49 120 -27 25 12 35 22 34 39
0 12 -1 74 -2 137 l-2 115 -96 0 -96 0 4 -115z"/>
<path d="M1455 1423 c0 -137 0 -138 25 -149 65 -30 79 -27 126 19 l44 44 0
112 0 111 -98 0 -98 0 1 -137z"/>
</g>
</svg>
